<mxfile host="Electron" agent="Mozilla/5.0 (Windows NT 10.0; Win64; x64) AppleWebKit/537.36 (KHTML, like Gecko) draw.io/28.2.5 Chrome/138.0.7204.251 Electron/37.6.1 Safari/537.36" version="28.2.5">
  <diagram name="PÃ¡gina-1" id="UIvxkkAT84L5IX5VxRQ0">
    <mxGraphModel dx="10420" dy="6260" grid="1" gridSize="10" guides="1" tooltips="1" connect="1" arrows="1" fold="1" page="1" pageScale="1" pageWidth="827" pageHeight="1169" math="0" shadow="0">
      <root>
        <mxCell id="0" />
        <mxCell id="1" parent="0" />
        <mxCell id="bLRt8q2Lo7k1l_k3JrD6-1" value="" style="rounded=0;whiteSpace=wrap;html=1;fillColor=#e1d5e7;strokeColor=#9673a6;" vertex="1" parent="1">
          <mxGeometry x="150" y="60" width="1450" height="1630" as="geometry" />
        </mxCell>
        <mxCell id="bLRt8q2Lo7k1l_k3JrD6-2" value="Api Firebase" style="text;html=1;align=center;verticalAlign=middle;whiteSpace=wrap;rounded=0;fontSize=80;fontStyle=1;fontColor=default;labelBackgroundColor=none;" vertex="1" parent="1">
          <mxGeometry x="161.25" y="60" width="1347.5" height="220" as="geometry" />
        </mxCell>
        <mxCell id="bLRt8q2Lo7k1l_k3JrD6-3" style="edgeStyle=orthogonalEdgeStyle;rounded=0;orthogonalLoop=1;jettySize=auto;html=1;strokeWidth=2;exitX=1;exitY=0.5;exitDx=0;exitDy=0;" edge="1" parent="1" source="bLRt8q2Lo7k1l_k3JrD6-8" target="bLRt8q2Lo7k1l_k3JrD6-5">
          <mxGeometry relative="1" as="geometry" />
        </mxCell>
        <mxCell id="bLRt8q2Lo7k1l_k3JrD6-4" style="edgeStyle=orthogonalEdgeStyle;shape=connector;rounded=0;orthogonalLoop=1;jettySize=auto;html=1;entryX=0;entryY=0.5;entryDx=0;entryDy=0;strokeColor=default;strokeWidth=2;align=center;verticalAlign=middle;fontFamily=Helvetica;fontSize=11;fontColor=default;labelBackgroundColor=default;endArrow=classic;" edge="1" parent="1" source="bLRt8q2Lo7k1l_k3JrD6-5" target="bLRt8q2Lo7k1l_k3JrD6-10">
          <mxGeometry relative="1" as="geometry" />
        </mxCell>
        <mxCell id="bLRt8q2Lo7k1l_k3JrD6-5" value="manejarPOST()" style="rounded=0;whiteSpace=wrap;html=1;fontSize=20;fontStyle=1" vertex="1" parent="1">
          <mxGeometry x="656.25" y="670.1400000000003" width="200" height="110" as="geometry" />
        </mxCell>
        <mxCell id="bLRt8q2Lo7k1l_k3JrD6-6" value="&lt;div style=&quot;line-height: 19px; white-space: pre;&quot;&gt;&lt;b&gt;URL: &lt;/b&gt;texto&lt;/div&gt;" style="rounded=0;whiteSpace=wrap;html=1;fontSize=16;fontColor=default;fontFamily=Helvetica;" vertex="1" parent="1">
          <mxGeometry x="262.25" y="551.0699999999997" width="270" height="52.5" as="geometry" />
        </mxCell>
        <mxCell id="bLRt8q2Lo7k1l_k3JrD6-7" value="&lt;div style=&quot;line-height: 19px; white-space: pre;&quot;&gt;&lt;b&gt;Method: &lt;/b&gt;POST&lt;/div&gt;" style="rounded=0;whiteSpace=wrap;html=1;fontSize=16;fontColor=default;fontFamily=Helvetica;" vertex="1" parent="1">
          <mxGeometry x="262.25" y="603.5699999999997" width="270" height="52.5" as="geometry" />
        </mxCell>
        <mxCell id="bLRt8q2Lo7k1l_k3JrD6-8" value="&lt;div style=&quot;line-height: 19px; white-space: pre;&quot;&gt;&lt;b&gt;Headers: &lt;/b&gt;&lt;/div&gt;&lt;div style=&quot;line-height: 19px; white-space: pre;&quot;&gt;&lt;b&gt;&lt;br&gt;&lt;/b&gt;&lt;/div&gt;&lt;div style=&quot;line-height: 19px; white-space: pre;&quot;&gt;&lt;b&gt;Content-Type: &lt;/b&gt;&quot; application/json;&lt;/div&gt;&lt;div style=&quot;line-height: 19px; white-space: pre;&quot;&gt;&lt;br&gt;&lt;/div&gt;&lt;div style=&quot;line-height: 19px; white-space: pre;&quot;&gt;charset = utf-8 &quot; &lt;/div&gt;" style="rounded=0;whiteSpace=wrap;html=1;fontSize=16;fontColor=default;fontFamily=Helvetica;" vertex="1" parent="1">
          <mxGeometry x="262.25" y="656.0699999999997" width="270" height="138.13" as="geometry" />
        </mxCell>
        <mxCell id="bLRt8q2Lo7k1l_k3JrD6-9" value="&lt;div style=&quot;line-height: 19px; white-space: pre;&quot;&gt;&lt;span&gt;&lt;b style=&quot;&quot;&gt;Body: &lt;/b&gt;&lt;/span&gt;&lt;/div&gt;&lt;div style=&quot;line-height: 19px; white-space: pre;&quot;&gt;&lt;span&gt;&lt;b style=&quot;&quot;&gt;&lt;br&gt;&lt;/b&gt;&lt;/span&gt;&lt;/div&gt;&lt;div style=&quot;line-height: 19px; white-space: pre;&quot;&gt;&lt;span&gt;{&lt;/span&gt;&lt;/div&gt;&lt;div style=&quot;line-height: 19px; white-space: pre;&quot;&gt;&lt;span&gt;&lt;span style=&quot;white-space: pre;&quot;&gt;&#x9;&lt;span style=&quot;white-space: pre;&quot;&gt;&#x9;&lt;span style=&quot;white-space: pre;&quot;&gt;&#x9;&lt;/span&gt;        &lt;/span&gt;v&lt;/span&gt;alor: numero Z&lt;br&gt;&lt;/span&gt;&lt;/div&gt;&lt;div style=&quot;line-height: 19px; white-space: pre;&quot;&gt;&lt;span&gt;&lt;span style=&quot;white-space: pre;&quot;&gt;&#x9;&lt;/span&gt;&lt;span style=&quot;white-space: pre;&quot;&gt;&#x9;&lt;/span&gt;&lt;span style=&quot;white-space: pre;&quot;&gt;&#x9;&lt;/span&gt;    sensor: texto&lt;/span&gt;&lt;/div&gt;&lt;div style=&quot;line-height: 19px; white-space: pre;&quot;&gt;&lt;span style=&quot;background-color: transparent; color: light-dark(rgb(0, 0, 0), rgb(255, 255, 255));&quot;&gt;}&lt;/span&gt;&lt;/div&gt;" style="rounded=0;whiteSpace=wrap;html=1;fontSize=16;fontColor=default;fontFamily=Helvetica;align=center;" vertex="1" parent="1">
          <mxGeometry x="262.25" y="794.1999999999998" width="270" height="180" as="geometry" />
        </mxCell>
        <mxCell id="bLRt8q2Lo7k1l_k3JrD6-10" value="&lt;div style=&quot;line-height: 19px; white-space: pre;&quot;&gt;&lt;b&gt;{ &quot;exito/error&quot;: booleano, &quot;mensaje&quot;: texto} o &lt;/b&gt;&lt;b style=&quot;background-color: transparent; color: light-dark(rgb(0, 0, 0), rgb(255, 255, 255));&quot;&gt;{ error : texto }&lt;/b&gt;&lt;/div&gt;" style="rounded=0;whiteSpace=wrap;html=1;fontSize=16;fontColor=default;fontFamily=Helvetica;align=center;" vertex="1" parent="1">
          <mxGeometry x="940" y="635.1400000000003" width="540" height="180" as="geometry" />
        </mxCell>
        <mxCell id="bLRt8q2Lo7k1l_k3JrD6-11" style="edgeStyle=orthogonalEdgeStyle;rounded=0;orthogonalLoop=1;jettySize=auto;html=1;strokeWidth=2;exitX=1;exitY=0.5;exitDx=0;exitDy=0;" edge="1" parent="1" source="bLRt8q2Lo7k1l_k3JrD6-16" target="bLRt8q2Lo7k1l_k3JrD6-13">
          <mxGeometry relative="1" as="geometry" />
        </mxCell>
        <mxCell id="bLRt8q2Lo7k1l_k3JrD6-12" style="edgeStyle=orthogonalEdgeStyle;shape=connector;rounded=0;orthogonalLoop=1;jettySize=auto;html=1;entryX=0;entryY=0.5;entryDx=0;entryDy=0;strokeColor=default;strokeWidth=2;align=center;verticalAlign=middle;fontFamily=Helvetica;fontSize=11;fontColor=default;labelBackgroundColor=default;endArrow=classic;" edge="1" parent="1" source="bLRt8q2Lo7k1l_k3JrD6-13" target="bLRt8q2Lo7k1l_k3JrD6-18">
          <mxGeometry relative="1" as="geometry" />
        </mxCell>
        <mxCell id="bLRt8q2Lo7k1l_k3JrD6-13" value="manejarGET()" style="rounded=0;whiteSpace=wrap;html=1;fontSize=20;fontStyle=1" vertex="1" parent="1">
          <mxGeometry x="656.25" y="1259.0700000000006" width="200" height="110" as="geometry" />
        </mxCell>
        <mxCell id="bLRt8q2Lo7k1l_k3JrD6-14" value="&lt;div style=&quot;line-height: 19px; white-space: pre;&quot;&gt;&lt;b&gt;URL: &lt;/b&gt;texto&lt;/div&gt;" style="rounded=0;whiteSpace=wrap;html=1;fontSize=16;fontColor=default;fontFamily=Helvetica;" vertex="1" parent="1">
          <mxGeometry x="262.25" y="1140" width="270" height="52.5" as="geometry" />
        </mxCell>
        <mxCell id="bLRt8q2Lo7k1l_k3JrD6-15" value="&lt;div style=&quot;line-height: 19px; white-space: pre;&quot;&gt;&lt;b&gt;Method: &lt;/b&gt;GET&lt;/div&gt;" style="rounded=0;whiteSpace=wrap;html=1;fontSize=16;fontColor=default;fontFamily=Helvetica;" vertex="1" parent="1">
          <mxGeometry x="262.25" y="1192.5" width="270" height="52.5" as="geometry" />
        </mxCell>
        <mxCell id="bLRt8q2Lo7k1l_k3JrD6-16" value="&lt;div style=&quot;line-height: 19px; white-space: pre;&quot;&gt;&lt;b&gt;Headers: &lt;/b&gt;&lt;/div&gt;&lt;div style=&quot;line-height: 19px; white-space: pre;&quot;&gt;&lt;b&gt;&lt;br&gt;&lt;/b&gt;&lt;/div&gt;&lt;div style=&quot;line-height: 19px; white-space: pre;&quot;&gt;&lt;b&gt;Content-Type: &lt;/b&gt;&quot; application/json;&lt;/div&gt;&lt;div style=&quot;line-height: 19px; white-space: pre;&quot;&gt;&lt;br&gt;&lt;/div&gt;&lt;div style=&quot;line-height: 19px; white-space: pre;&quot;&gt;charset = utf-8 &quot; &lt;/div&gt;" style="rounded=0;whiteSpace=wrap;html=1;fontSize=16;fontColor=default;fontFamily=Helvetica;" vertex="1" parent="1">
          <mxGeometry x="262.25" y="1245" width="270" height="138.13" as="geometry" />
        </mxCell>
        <mxCell id="bLRt8q2Lo7k1l_k3JrD6-17" value="&lt;div style=&quot;line-height: 19px; white-space: pre;&quot;&gt;&lt;span&gt;&lt;b style=&quot;&quot;&gt;Body: &lt;/b&gt;&lt;/span&gt;&lt;/div&gt;&lt;div style=&quot;line-height: 19px; white-space: pre;&quot;&gt;&lt;span&gt;&lt;b style=&quot;&quot;&gt;&lt;br&gt;&lt;/b&gt;&lt;/span&gt;&lt;/div&gt;&lt;div style=&quot;line-height: 19px; white-space: pre;&quot;&gt;&lt;div style=&quot;line-height: 19px;&quot;&gt;{&lt;/div&gt;&lt;div style=&quot;line-height: 19px;&quot;&gt;&#x9;&#x9;&#x9;       valor: numero Z&lt;br&gt;&lt;/div&gt;&lt;div style=&quot;line-height: 19px;&quot;&gt;&#x9;&#x9;&#x9;  sensor: texto&lt;/div&gt;&lt;div style=&quot;line-height: 19px;&quot;&gt;&lt;span style=&quot;background-color: transparent; color: light-dark(rgb(0, 0, 0), rgb(255, 255, 255));&quot;&gt;}&lt;/span&gt;&lt;/div&gt;&lt;/div&gt;" style="rounded=0;whiteSpace=wrap;html=1;fontSize=16;fontColor=default;fontFamily=Helvetica;align=center;" vertex="1" parent="1">
          <mxGeometry x="262.25" y="1383.13" width="270" height="180" as="geometry" />
        </mxCell>
        <mxCell id="bLRt8q2Lo7k1l_k3JrD6-18" value="&lt;div style=&quot;line-height: 19px; white-space: pre;&quot;&gt;&lt;b&gt;{ &quot;sensor&quot;: texto, &quot;valor&quot;: numero Z, &quot;tiempo&quot;: texto}&lt;/b&gt;&lt;/div&gt;&lt;div style=&quot;line-height: 19px; white-space: pre;&quot;&gt;&lt;b&gt;&lt;br&gt;&lt;/b&gt;&lt;/div&gt;&lt;div style=&quot;line-height: 19px; white-space: pre;&quot;&gt;&lt;b&gt;o&lt;/b&gt;&lt;/div&gt;&lt;div style=&quot;line-height: 19px; white-space: pre;&quot;&gt;&lt;b&gt;&lt;br&gt;&lt;/b&gt;&lt;/div&gt;&lt;div style=&quot;line-height: 19px; white-space: pre;&quot;&gt;&lt;b&gt;{ error : texto }&lt;/b&gt;&lt;/div&gt;" style="rounded=0;whiteSpace=wrap;html=1;fontSize=16;fontColor=default;fontFamily=Helvetica;align=center;" vertex="1" parent="1">
          <mxGeometry x="940" y="1224.0700000000006" width="540" height="180" as="geometry" />
        </mxCell>
        <mxCell id="bLRt8q2Lo7k1l_k3JrD6-19" value="" style="rounded=0;whiteSpace=wrap;html=1;fillColor=#f8cecc;strokeColor=#b85450;" vertex="1" parent="1">
          <mxGeometry x="2363.75" y="114.85999999999967" width="1276.25" height="1410" as="geometry" />
        </mxCell>
        <mxCell id="bLRt8q2Lo7k1l_k3JrD6-20" value="LogicaDeNegocio" style="text;html=1;align=center;verticalAlign=middle;whiteSpace=wrap;rounded=0;fontSize=80;fontStyle=1;fontColor=default;labelBackgroundColor=none;fontFamily=Helvetica;" vertex="1" parent="1">
          <mxGeometry x="2246.25" y="114.85999999999967" width="1441.25" height="220" as="geometry" />
        </mxCell>
        <mxCell id="bLRt8q2Lo7k1l_k3JrD6-21" style="edgeStyle=orthogonalEdgeStyle;rounded=0;orthogonalLoop=1;jettySize=auto;html=1;strokeWidth=2;exitX=1;exitY=0.5;exitDx=0;exitDy=0;" edge="1" parent="1" target="bLRt8q2Lo7k1l_k3JrD6-23">
          <mxGeometry relative="1" as="geometry">
            <mxPoint x="2051.25" y="874.9950000000008" as="sourcePoint" />
          </mxGeometry>
        </mxCell>
        <mxCell id="bLRt8q2Lo7k1l_k3JrD6-22" value="c" style="edgeStyle=orthogonalEdgeStyle;shape=connector;rounded=0;orthogonalLoop=1;jettySize=auto;html=1;strokeColor=default;strokeWidth=2;align=center;verticalAlign=middle;fontFamily=Helvetica;fontSize=11;fontColor=default;labelBackgroundColor=default;endArrow=classic;" edge="1" parent="1" target="bLRt8q2Lo7k1l_k3JrD6-23">
          <mxGeometry relative="1" as="geometry">
            <mxPoint x="2631.5" y="874.9999999999991" as="sourcePoint" />
          </mxGeometry>
        </mxCell>
        <mxCell id="bLRt8q2Lo7k1l_k3JrD6-23" value="guardarMedida()" style="rounded=0;whiteSpace=wrap;html=1;fontSize=20;fontStyle=1" vertex="1" parent="1">
          <mxGeometry x="2175.25" y="820" width="346.25" height="110" as="geometry" />
        </mxCell>
        <mxCell id="bLRt8q2Lo7k1l_k3JrD6-24" value="&lt;div style=&quot;line-height: 19px; white-space: pre;&quot;&gt;&lt;b&gt;sensor: texto&lt;/b&gt;&lt;/div&gt;&lt;div style=&quot;line-height: 19px; white-space: pre;&quot;&gt;&lt;b&gt;&lt;br&gt;&lt;/b&gt;&lt;/div&gt;&lt;div style=&quot;line-height: 19px; white-space: pre;&quot;&gt;&lt;b&gt;valor: numero N&lt;/b&gt;&lt;/div&gt;" style="rounded=0;whiteSpace=wrap;html=1;fontSize=16;fontColor=default;fontFamily=Helvetica;align=center;" vertex="1" parent="1">
          <mxGeometry x="1751.25" y="785" width="300" height="180" as="geometry" />
        </mxCell>
        <mxCell id="bLRt8q2Lo7k1l_k3JrD6-25" style="edgeStyle=orthogonalEdgeStyle;shape=connector;rounded=0;orthogonalLoop=1;jettySize=auto;html=1;strokeColor=default;strokeWidth=2;align=center;verticalAlign=middle;fontFamily=Helvetica;fontSize=11;fontColor=default;labelBackgroundColor=default;endArrow=classic;" edge="1" parent="1" target="bLRt8q2Lo7k1l_k3JrD6-26">
          <mxGeometry relative="1" as="geometry">
            <mxPoint x="2641.25" y="1308.9299999999994" as="sourcePoint" />
          </mxGeometry>
        </mxCell>
        <mxCell id="bLRt8q2Lo7k1l_k3JrD6-26" value="obtenerMedida()" style="rounded=0;whiteSpace=wrap;html=1;fontSize=20;fontStyle=1" vertex="1" parent="1">
          <mxGeometry x="2165" y="1253.9300000000003" width="376.25" height="110" as="geometry" />
        </mxCell>
        <mxCell id="bLRt8q2Lo7k1l_k3JrD6-27" value="" style="rounded=0;whiteSpace=wrap;html=1;fillColor=#d5e8d4;strokeColor=#82b366;" vertex="1" parent="1">
          <mxGeometry x="4348.75" y="394.8599999999997" width="780" height="850" as="geometry" />
        </mxCell>
        <mxCell id="bLRt8q2Lo7k1l_k3JrD6-28" value="" style="shape=table;startSize=0;container=1;collapsible=0;childLayout=tableLayout;fontFamily=Helvetica;fontSize=11;fontColor=default;labelBackgroundColor=default;" vertex="1" parent="1">
          <mxGeometry x="4498.75" y="834.8599999999997" width="540" height="230" as="geometry" />
        </mxCell>
        <mxCell id="bLRt8q2Lo7k1l_k3JrD6-29" value="" style="shape=tableRow;horizontal=0;startSize=0;swimlaneHead=0;swimlaneBody=0;strokeColor=inherit;top=0;left=0;bottom=0;right=0;collapsible=0;dropTarget=0;fillColor=none;points=[[0,0.5],[1,0.5]];portConstraint=eastwest;fontFamily=Helvetica;fontSize=22;fontColor=default;labelBackgroundColor=default;" vertex="1" parent="bLRt8q2Lo7k1l_k3JrD6-28">
          <mxGeometry width="540" height="128" as="geometry" />
        </mxCell>
        <mxCell id="bLRt8q2Lo7k1l_k3JrD6-30" value="&lt;font style=&quot;font-size: 22px;&quot;&gt;id&lt;/font&gt;" style="shape=partialRectangle;html=1;whiteSpace=wrap;connectable=0;strokeColor=inherit;overflow=hidden;fillColor=none;top=0;left=0;bottom=0;right=0;pointerEvents=1;fontFamily=Helvetica;fontSize=11;fontColor=default;labelBackgroundColor=default;" vertex="1" parent="bLRt8q2Lo7k1l_k3JrD6-29">
          <mxGeometry width="91" height="128" as="geometry">
            <mxRectangle width="91" height="128" as="alternateBounds" />
          </mxGeometry>
        </mxCell>
        <mxCell id="bLRt8q2Lo7k1l_k3JrD6-31" value="nombre" style="shape=partialRectangle;html=1;whiteSpace=wrap;connectable=0;strokeColor=inherit;overflow=hidden;fillColor=none;top=0;left=0;bottom=0;right=0;pointerEvents=1;fontFamily=Helvetica;fontSize=22;fontColor=default;labelBackgroundColor=default;" vertex="1" parent="bLRt8q2Lo7k1l_k3JrD6-29">
          <mxGeometry x="91" width="179" height="128" as="geometry">
            <mxRectangle width="179" height="128" as="alternateBounds" />
          </mxGeometry>
        </mxCell>
        <mxCell id="bLRt8q2Lo7k1l_k3JrD6-32" value="timestamp" style="shape=partialRectangle;html=1;whiteSpace=wrap;connectable=0;strokeColor=inherit;overflow=hidden;fillColor=none;top=0;left=0;bottom=0;right=0;pointerEvents=1;fontFamily=Helvetica;fontSize=22;fontColor=default;labelBackgroundColor=default;" vertex="1" parent="bLRt8q2Lo7k1l_k3JrD6-29">
          <mxGeometry x="270" width="135" height="128" as="geometry">
            <mxRectangle width="135" height="128" as="alternateBounds" />
          </mxGeometry>
        </mxCell>
        <mxCell id="bLRt8q2Lo7k1l_k3JrD6-33" value="valor" style="shape=partialRectangle;html=1;whiteSpace=wrap;connectable=0;strokeColor=inherit;overflow=hidden;fillColor=none;top=0;left=0;bottom=0;right=0;pointerEvents=1;fontFamily=Helvetica;fontSize=22;fontColor=default;labelBackgroundColor=default;" vertex="1" parent="bLRt8q2Lo7k1l_k3JrD6-29">
          <mxGeometry x="405" width="135" height="128" as="geometry">
            <mxRectangle width="135" height="128" as="alternateBounds" />
          </mxGeometry>
        </mxCell>
        <mxCell id="bLRt8q2Lo7k1l_k3JrD6-34" style="shape=tableRow;horizontal=0;startSize=0;swimlaneHead=0;swimlaneBody=0;strokeColor=inherit;top=0;left=0;bottom=0;right=0;collapsible=0;dropTarget=0;fillColor=none;points=[[0,0.5],[1,0.5]];portConstraint=eastwest;fontFamily=Helvetica;fontSize=11;fontColor=default;labelBackgroundColor=default;" vertex="1" parent="bLRt8q2Lo7k1l_k3JrD6-28">
          <mxGeometry y="128" width="540" height="102" as="geometry" />
        </mxCell>
        <mxCell id="bLRt8q2Lo7k1l_k3JrD6-35" value="numeros y letras" style="shape=partialRectangle;html=1;whiteSpace=wrap;connectable=0;strokeColor=inherit;overflow=hidden;fillColor=none;top=0;left=0;bottom=0;right=0;pointerEvents=1;fontFamily=Helvetica;fontSize=16;fontColor=default;labelBackgroundColor=default;" vertex="1" parent="bLRt8q2Lo7k1l_k3JrD6-34">
          <mxGeometry width="91" height="102" as="geometry">
            <mxRectangle width="91" height="102" as="alternateBounds" />
          </mxGeometry>
        </mxCell>
        <mxCell id="bLRt8q2Lo7k1l_k3JrD6-36" value="texto" style="shape=partialRectangle;html=1;whiteSpace=wrap;connectable=0;strokeColor=inherit;overflow=hidden;fillColor=none;top=0;left=0;bottom=0;right=0;pointerEvents=1;fontFamily=Helvetica;fontSize=16;fontColor=default;labelBackgroundColor=default;" vertex="1" parent="bLRt8q2Lo7k1l_k3JrD6-34">
          <mxGeometry x="91" width="179" height="102" as="geometry">
            <mxRectangle width="179" height="102" as="alternateBounds" />
          </mxGeometry>
        </mxCell>
        <mxCell id="bLRt8q2Lo7k1l_k3JrD6-37" value="texto" style="shape=partialRectangle;html=1;whiteSpace=wrap;connectable=0;strokeColor=inherit;overflow=hidden;fillColor=none;top=0;left=0;bottom=0;right=0;pointerEvents=1;fontFamily=Helvetica;fontSize=16;fontColor=default;labelBackgroundColor=default;" vertex="1" parent="bLRt8q2Lo7k1l_k3JrD6-34">
          <mxGeometry x="270" width="135" height="102" as="geometry">
            <mxRectangle width="135" height="102" as="alternateBounds" />
          </mxGeometry>
        </mxCell>
        <mxCell id="bLRt8q2Lo7k1l_k3JrD6-38" value="numero Z" style="shape=partialRectangle;html=1;whiteSpace=wrap;connectable=0;strokeColor=inherit;overflow=hidden;fillColor=none;top=0;left=0;bottom=0;right=0;pointerEvents=1;fontFamily=Helvetica;fontSize=16;fontColor=default;labelBackgroundColor=default;" vertex="1" parent="bLRt8q2Lo7k1l_k3JrD6-34">
          <mxGeometry x="405" width="135" height="102" as="geometry">
            <mxRectangle width="135" height="102" as="alternateBounds" />
          </mxGeometry>
        </mxCell>
        <mxCell id="bLRt8q2Lo7k1l_k3JrD6-39" value="Base de Datos" style="text;html=1;align=center;verticalAlign=middle;whiteSpace=wrap;rounded=0;fontSize=80;fontStyle=1;fontColor=default;labelBackgroundColor=none;fontFamily=Helvetica;" vertex="1" parent="1">
          <mxGeometry x="4348.75" y="394.8599999999997" width="761.25" height="220" as="geometry" />
        </mxCell>
        <mxCell id="bLRt8q2Lo7k1l_k3JrD6-40" value="Tabla" style="rounded=0;whiteSpace=wrap;html=1;fontSize=20;fontStyle=1" vertex="1" parent="1">
          <mxGeometry x="4498.75" y="724.8599999999997" width="540" height="110" as="geometry" />
        </mxCell>
        <mxCell id="bLRt8q2Lo7k1l_k3JrD6-41" value="" style="rounded=0;whiteSpace=wrap;html=1;fillColor=#e1d5e7;strokeColor=#9673a6;" vertex="1" parent="1">
          <mxGeometry x="5420" y="224.85999999999967" width="1460" height="1400" as="geometry" />
        </mxCell>
        <mxCell id="bLRt8q2Lo7k1l_k3JrD6-42" value="Pagina Web React" style="text;html=1;align=center;verticalAlign=middle;whiteSpace=wrap;rounded=0;fontSize=80;fontStyle=1;fontColor=default;labelBackgroundColor=none;" vertex="1" parent="1">
          <mxGeometry x="5521.25" y="224.85999999999967" width="1347.5" height="220" as="geometry" />
        </mxCell>
        <mxCell id="bLRt8q2Lo7k1l_k3JrD6-43" value="main()" style="rounded=0;whiteSpace=wrap;html=1;fontSize=20;fontStyle=1" vertex="1" parent="1">
          <mxGeometry x="6021" y="1223.9299999999994" width="200" height="110" as="geometry" />
        </mxCell>
        <mxCell id="bLRt8q2Lo7k1l_k3JrD6-44" style="edgeStyle=orthogonalEdgeStyle;rounded=0;orthogonalLoop=1;jettySize=auto;html=1;strokeWidth=2;exitX=1;exitY=0.5;exitDx=0;exitDy=0;" edge="1" parent="1" source="bLRt8q2Lo7k1l_k3JrD6-49" target="bLRt8q2Lo7k1l_k3JrD6-46">
          <mxGeometry relative="1" as="geometry" />
        </mxCell>
        <mxCell id="bLRt8q2Lo7k1l_k3JrD6-45" style="edgeStyle=orthogonalEdgeStyle;shape=connector;rounded=0;orthogonalLoop=1;jettySize=auto;html=1;entryX=0;entryY=0.5;entryDx=0;entryDy=0;strokeColor=default;strokeWidth=2;align=center;verticalAlign=middle;fontFamily=Helvetica;fontSize=11;fontColor=default;labelBackgroundColor=default;endArrow=classic;" edge="1" parent="1" source="bLRt8q2Lo7k1l_k3JrD6-46" target="bLRt8q2Lo7k1l_k3JrD6-51">
          <mxGeometry relative="1" as="geometry" />
        </mxCell>
        <mxCell id="bLRt8q2Lo7k1l_k3JrD6-46" value="obtenerMedida()" style="rounded=0;whiteSpace=wrap;html=1;fontSize=20;fontStyle=1" vertex="1" parent="1">
          <mxGeometry x="6014" y="583.9299999999994" width="200" height="110" as="geometry" />
        </mxCell>
        <mxCell id="bLRt8q2Lo7k1l_k3JrD6-47" value="&lt;div style=&quot;line-height: 19px; white-space: pre;&quot;&gt;&lt;b&gt;URL: &lt;/b&gt;texto&lt;/div&gt;" style="rounded=0;whiteSpace=wrap;html=1;fontSize=16;fontColor=default;fontFamily=Helvetica;" vertex="1" parent="1">
          <mxGeometry x="5620" y="464.8599999999997" width="270" height="52.5" as="geometry" />
        </mxCell>
        <mxCell id="bLRt8q2Lo7k1l_k3JrD6-48" value="&lt;div style=&quot;line-height: 19px; white-space: pre;&quot;&gt;&lt;b&gt;Method: &lt;/b&gt;GET&lt;/div&gt;" style="rounded=0;whiteSpace=wrap;html=1;fontSize=16;fontColor=default;fontFamily=Helvetica;" vertex="1" parent="1">
          <mxGeometry x="5620" y="517.3599999999997" width="270" height="52.5" as="geometry" />
        </mxCell>
        <mxCell id="bLRt8q2Lo7k1l_k3JrD6-49" value="&lt;div style=&quot;line-height: 19px; white-space: pre;&quot;&gt;&lt;b&gt;Headers: &lt;/b&gt;&lt;/div&gt;&lt;div style=&quot;line-height: 19px; white-space: pre;&quot;&gt;&lt;b&gt;&lt;br&gt;&lt;/b&gt;&lt;/div&gt;&lt;div style=&quot;line-height: 19px; white-space: pre;&quot;&gt;&lt;b&gt;Content-Type: &lt;/b&gt;&quot; application/json;&lt;/div&gt;&lt;div style=&quot;line-height: 19px; white-space: pre;&quot;&gt;&lt;br&gt;&lt;/div&gt;&lt;div style=&quot;line-height: 19px; white-space: pre;&quot;&gt;charset = utf-8 &quot; &lt;/div&gt;" style="rounded=0;whiteSpace=wrap;html=1;fontSize=16;fontColor=default;fontFamily=Helvetica;" vertex="1" parent="1">
          <mxGeometry x="5620" y="569.8599999999997" width="270" height="138.13" as="geometry" />
        </mxCell>
        <mxCell id="bLRt8q2Lo7k1l_k3JrD6-50" value="&lt;div style=&quot;line-height: 19px; white-space: pre;&quot;&gt;&lt;span&gt;&lt;b style=&quot;&quot;&gt;Body: &lt;/b&gt;&lt;/span&gt;&lt;/div&gt;&lt;div style=&quot;line-height: 19px; white-space: pre;&quot;&gt;&lt;span&gt;&lt;b style=&quot;&quot;&gt;&lt;br&gt;&lt;/b&gt;&lt;/span&gt;&lt;/div&gt;&lt;div style=&quot;line-height: 19px; white-space: pre;&quot;&gt;&lt;div style=&quot;line-height: 19px;&quot;&gt;{&lt;/div&gt;&lt;div style=&quot;line-height: 19px;&quot;&gt;&#x9;&#x9;&#x9;       valor: numero Z&lt;br&gt;&lt;/div&gt;&lt;div style=&quot;line-height: 19px;&quot;&gt;&#x9;&#x9;&#x9;  sensor: texto&lt;/div&gt;&lt;div style=&quot;line-height: 19px;&quot;&gt;&lt;span style=&quot;background-color: transparent; color: light-dark(rgb(0, 0, 0), rgb(255, 255, 255));&quot;&gt;}&lt;/span&gt;&lt;/div&gt;&lt;/div&gt;" style="rounded=0;whiteSpace=wrap;html=1;fontSize=16;fontColor=default;fontFamily=Helvetica;align=center;" vertex="1" parent="1">
          <mxGeometry x="5620" y="707.9900000000007" width="270" height="180" as="geometry" />
        </mxCell>
        <mxCell id="bLRt8q2Lo7k1l_k3JrD6-51" value="&lt;div style=&quot;line-height: 19px; white-space: pre;&quot;&gt;&lt;b&gt;resultado: { &quot;sensor&quot;: texto, &quot;valor&quot;: numero Z, &quot;tiempo&quot;: texto}&lt;/b&gt;&lt;/div&gt;&lt;div style=&quot;line-height: 19px; white-space: pre;&quot;&gt;&lt;b&gt;&lt;br&gt;&lt;/b&gt;&lt;/div&gt;&lt;div style=&quot;line-height: 19px; white-space: pre;&quot;&gt;&lt;b&gt;o&lt;/b&gt;&lt;/div&gt;&lt;div style=&quot;line-height: 19px; white-space: pre;&quot;&gt;&lt;b&gt;&lt;br&gt;&lt;/b&gt;&lt;/div&gt;&lt;div style=&quot;line-height: 19px; white-space: pre;&quot;&gt;&lt;b&gt;{ error : texto }&lt;/b&gt;&lt;/div&gt;" style="rounded=0;whiteSpace=wrap;html=1;fontSize=16;fontColor=default;fontFamily=Helvetica;align=center;" vertex="1" parent="1">
          <mxGeometry x="6297.75" y="548.9299999999994" width="540" height="180" as="geometry" />
        </mxCell>
        <mxCell id="bLRt8q2Lo7k1l_k3JrD6-52" style="edgeStyle=orthogonalEdgeStyle;shape=connector;rounded=0;orthogonalLoop=1;jettySize=auto;html=1;entryX=0;entryY=0.5;entryDx=0;entryDy=0;strokeColor=default;strokeWidth=2;align=center;verticalAlign=middle;fontFamily=Helvetica;fontSize=11;fontColor=default;labelBackgroundColor=default;endArrow=classic;" edge="1" parent="1" source="bLRt8q2Lo7k1l_k3JrD6-53" target="bLRt8q2Lo7k1l_k3JrD6-55">
          <mxGeometry relative="1" as="geometry" />
        </mxCell>
        <mxCell id="bLRt8q2Lo7k1l_k3JrD6-53" value="&lt;div style=&quot;line-height: 19px; white-space: pre;&quot;&gt;&lt;b&gt;tiempo:texto&lt;/b&gt;&lt;/div&gt;" style="rounded=0;whiteSpace=wrap;html=1;fontSize=16;fontColor=default;fontFamily=Helvetica;align=center;strokeColor=default;verticalAlign=middle;fillColor=default;" vertex="1" parent="1">
          <mxGeometry x="5597.5" y="974.8599999999997" width="300" height="180" as="geometry" />
        </mxCell>
        <mxCell id="bLRt8q2Lo7k1l_k3JrD6-54" style="edgeStyle=orthogonalEdgeStyle;shape=connector;rounded=0;orthogonalLoop=1;jettySize=auto;html=1;entryX=0;entryY=0.5;entryDx=0;entryDy=0;strokeColor=default;strokeWidth=2;align=center;verticalAlign=middle;fontFamily=Helvetica;fontSize=11;fontColor=default;labelBackgroundColor=default;endArrow=classic;" edge="1" parent="1" source="bLRt8q2Lo7k1l_k3JrD6-55" target="bLRt8q2Lo7k1l_k3JrD6-56">
          <mxGeometry relative="1" as="geometry" />
        </mxCell>
        <mxCell id="bLRt8q2Lo7k1l_k3JrD6-55" value="formatearTiempo()" style="rounded=0;whiteSpace=wrap;html=1;fontSize=20;fontStyle=1" vertex="1" parent="1">
          <mxGeometry x="6021.5" y="1009.8599999999997" width="200" height="110" as="geometry" />
        </mxCell>
        <mxCell id="bLRt8q2Lo7k1l_k3JrD6-56" value="&lt;div style=&quot;line-height: 19px; white-space: pre;&quot;&gt;&lt;b&gt;tiempo: tiempo&lt;/b&gt;&lt;/div&gt;" style="rounded=0;whiteSpace=wrap;html=1;fontSize=16;fontColor=default;fontFamily=Helvetica;align=center;strokeColor=default;verticalAlign=middle;fillColor=default;" vertex="1" parent="1">
          <mxGeometry x="6325" y="974.8599999999997" width="300" height="180" as="geometry" />
        </mxCell>
        <mxCell id="bLRt8q2Lo7k1l_k3JrD6-57" value="App()" style="rounded=0;whiteSpace=wrap;html=1;fontSize=20;fontStyle=1" vertex="1" parent="1">
          <mxGeometry x="6021" y="1444.8599999999997" width="200" height="110" as="geometry" />
        </mxCell>
        <mxCell id="bLRt8q2Lo7k1l_k3JrD6-58" value="Constructor()" style="rounded=0;whiteSpace=wrap;html=1;fontSize=20;fontStyle=1" vertex="1" parent="1">
          <mxGeometry x="2163.75" y="444.8599999999997" width="376.25" height="110" as="geometry" />
        </mxCell>
        <mxCell id="bLRt8q2Lo7k1l_k3JrD6-59" value="db: objeto&lt;div&gt;&lt;br&gt;&lt;/div&gt;&lt;div&gt;admin: objeto&lt;/div&gt;" style="rounded=0;whiteSpace=wrap;html=1;fontSize=20;fontStyle=1" vertex="1" parent="1">
          <mxGeometry x="2923.75" y="497.3599999999997" width="376.25" height="110" as="geometry" />
        </mxCell>
        <mxCell id="bLRt8q2Lo7k1l_k3JrD6-60" value="" style="edgeStyle=orthogonalEdgeStyle;shape=connector;rounded=0;orthogonalLoop=1;jettySize=auto;html=1;strokeColor=default;strokeWidth=2;align=center;verticalAlign=middle;fontFamily=Helvetica;fontSize=11;fontColor=default;labelBackgroundColor=default;endArrow=classic;" edge="1" parent="1">
          <mxGeometry relative="1" as="geometry">
            <mxPoint x="2540" y="499.4399999999996" as="sourcePoint" />
            <mxPoint x="2649.5" y="499.579999999999" as="targetPoint" />
          </mxGeometry>
        </mxCell>
      </root>
    </mxGraphModel>
  </diagram>
</mxfile>
